<svg fill="none" height="272" viewBox="0 0 192 272" width="192" xmlns="http://www.w3.org/2000/svg" xmlns:xlink="http://www.w3.org/1999/xlink"><clipPath id="a"><path d="m0 0h192v272h-192z"/></clipPath><g clip-path="url(#a)" fill="#0060d6"><path d="m122.952.24823c-.599.187317-1.948.412109-2.997.48703-6.481.44955-13.487 1.42361-16.484 2.32275-6.6311 1.98557-12.2506 3.93366-15.435 5.28235-6.144 2.65994-16.9335 8.57914-21.9536 12.06324-4.9452 3.4467-12.85 10.4149-16.6713 14.7606-2.0605 2.2853-4.9077 5.2824-6.3688 6.5936-1.461 1.3487-2.585 2.5475-2.4726 2.7348s-.2247.8242-.7492 1.4236c-.4871.6369-1.0115 1.4611-1.1614 1.8732-.1124.4121-.562.7493-.9741.7493-.7867 0-.9365.3746-.2997 1.0115.6369.6369.1124 1.6109-1.0864 2.023-.8242.2997-1.0864.5995-1.0115 1.2363.0749.4871-.3747 1.6859-.9741 2.6974-.5619 1.0115-1.4236 2.585-1.8357 3.5216-.4495.9366-1.4985 3.072-2.2853 4.7578-.8242 1.6859-1.5734 3.5216-1.6858 4.121-.2248 1.1614-.4121 1.4236-1.0115 1.4236-.2623 0-.4871.6369-.5245 1.4986-.0375.7867-1.0115 3.6714-2.1354 6.3688-2.098 5.0201-3.7089 9.1411-4.121 10.5272-.1499.4496-.562 1.0865-.9741 1.4611-.5994.5619-.8242.5619-1.3112.1873-.4496-.3746-.487-.5994-.1498-1.0115.2622-.2623.3371-.5994.1873-.7493-.3747-.3746-.7493.1873-.8242 1.3112-.075.562-.4496 1.9481-.8617 3.0721-.4495 1.1239-.7867 2.3227-.7867 2.6598 0 .3372-.2623.7119-.562.8617-.2997.1124-.5619.3746-.5619.562 0 .2247-.4121 1.0115-.9366 1.7608-.6744 1.0115-.9366 1.8731-.9366 3.2593 0 1.536-.1873 2.06-1.1239 3.147-.7118.787-1.1239 1.686-1.1239 2.398 0 .599-.3746 1.611-.82421 2.21-.78673 1.086-.78673 1.124-.11239 1.648.5994.45.6743.712.3746 1.948-.29967 1.162-.59938 1.461-1.57343 1.724-1.23629.337-1.72332 1.049-.67434 1.049.67434 0 .7118.524.14985 1.536-.22478.412-.63688 1.723-.93659 2.884-.2997 1.162-.82419 2.51-1.1239 2.96-.26225.45-.52449.974-.52449 1.161 0 .188-.26224 1.012-.59942 1.761-.41209 1.049-.67434 1.311-.89912.937-.18732-.3-.26224-.637-.18732-.787.11239-.112.26225-1.573.4121-3.184.22478-2.623.18732-2.885-.33717-2.435-1.12391.899-2.88469 7.867-3.63396 14.311-.636879 5.507-.037464 19.93 1.12391 26.936.18731 1.124.44956 2.997.59941 4.121.4121 3.297.48703 3.821.86166 5.994.18732 1.124.52449 2.547.74927 3.184.97405 2.698 1.91064 5.845 1.91064 6.482 0 .337.33717 1.386.78673 2.285.4121.936.8242 2.285.93659 2.997.11239.749.48703 1.948.86166 2.66.37464.712.78674 2.023.93659 2.922.11239.899.56195 1.986.97405 2.435.41208.412.74928 1.199.74928 1.686s.2997 1.349.7118 1.873c.3746.562.8991 1.649 1.1239 2.398.2622.787.6369 1.498.8242 1.611.1873.15.3372.562.3372.974 0 .674.487 1.873 2.3602 5.956.2248.525.974 1.724 1.6109 2.698.6743.974 1.4985 2.585 1.8732 3.559.3746 1.011.8616 1.91 1.1239 2.06.2248.15.7867 1.124 1.2363 2.211.7867 1.798 3.559 6.219 4.6829 7.455.2623.3.7867 1.161 1.1614 1.873.3746.712.7867 1.386.8991 1.499.1499.112.5245.637.8991 1.198.3372.562 1.4236 1.911 2.3602 2.998.9366 1.086 2.6599 3.146 3.8213 4.57 2.585 3.11 9.5157 10.34 9.9278 10.34.1499 0 1.0865.787 2.098 1.761 4.0086 3.971 6.1815 5.807 8.0172 6.856 1.0864.599 2.2853 1.423 2.6974 1.76.974.9 6.1814 3.822 8.8039 4.946 1.1239.487 2.3976 1.086 2.8097 1.348.4121.263 1.4237.6 2.2479.75.7867.149 1.9481.487 2.51.786.562.3 1.5735.525 2.2478.525.6744 0 2.0605.262 3.072.562 1.0115.299 2.585.562 3.5216.562s2.7723.187 4.1584.412c5.8818.936 7.6801 1.124 13.7869 1.461 6.294.374 10.19.187 14.723-.712.936-.187 2.772-.562 4.121-.824 1.349-.225 2.885-.674 3.409-.937.525-.262 1.873-.599 2.997-.749s2.285-.487 2.623-.787c.337-.299 1.086-.599 1.648-.712.562-.112 1.274-.449 1.573-.749.338-.3 1.049-.674 1.649-.787.599-.112 1.086-.337 1.086-.487 0-.187.562-.412 1.237-.562.636-.149 1.61-.674 2.135-1.123.524-.487 1.873-1.312 2.997-1.836 1.161-.525 3.409-2.173 5.17-3.784 1.686-1.536 3.259-2.81 3.447-2.81.599 0 2.397-3.072 2.884-4.982.263-1.012.899-2.361 1.386-2.997 1.162-1.574 2.998-5.095 2.735-5.358-.075-.112-1.348.675-2.735 1.724-1.423 1.086-3.259 2.285-4.083 2.697-.824.45-2.023 1.161-2.66 1.648s-1.349.899-1.611.899c-.225 0-.637.413-.862.937-.299.674-.674.937-1.236.862-.449-.038-1.873.524-3.184 1.311-1.311.749-2.585 1.386-2.847 1.386-.712 0-2.398.824-2.398 1.199 0 .15-.113.262-.262.225-.375-.113-4.571 1.498-5.545 2.098-1.236.786-10.415 3.634-13.3 4.158-2.809.525-9.665.824-11.613.562-1.124-.187-3.185-.412-4.571-.524-3.2591-.225-8.2792-.9-10.6019-1.424-1.0115-.225-3.2219-.525-4.8703-.674-3.2593-.338-5.3572-.825-8.167-1.948-.9741-.375-1.9481-.6-2.1354-.487-.2248.112-.3747.037-.3747-.188s-.3746-.562-.8242-.749c-.487-.225-1.6858-.862-2.7348-1.499-1.0115-.599-2.2853-1.311-2.8098-1.573-.5244-.262-1.0115-.562-1.1239-.674-.1124-.113-.5244-.45-.8991-.75-.6743-.487-.7118-.487-.4495 0 .1498.337.0374.3-.2623-.112-.2997-.337-.7118-.637-.974-.637-.2248 0-.5245-.262-.6369-.562-.1499-.3-.4496-.562-.7493-.562s-1.1614-.599-1.9106-1.349c-.7868-.749-2.6974-2.36-4.2334-3.634-3.2219-2.622-6.4812-5.769-7.7549-7.492-.4871-.675-.9366-1.124-1.0116-1.012-.1124.113-.8616-.786-1.7607-1.985-.8617-1.162-1.6859-2.136-1.8358-2.136-.1498 0-1.4985-1.648-3.0345-3.671-1.4985-1.986-2.8472-3.709-2.9596-3.821-.5994-.525-2.6225-3.335-2.6225-3.597 0-.599-2.0605-4.458-2.5475-4.758-.2622-.187-.3746-.449-.2622-.637.1124-.15-.075-.374-.3372-.487-.2997-.112-.9366-1.011-1.4236-2.023-1.1614-2.36-4.0461-8.092-6.219-12.25-.9365-1.836-2.6599-6.144-3.8587-9.553-1.1614-3.41-2.3602-6.819-2.6224-7.531-2.3977-6.743-2.5101-7.155-3.4841-13.974-.4496-3.259-.9366-5.806-1.049-5.694s-.2997-1.948-.4496-4.571c-.1498-2.622-.4121-6.593-.6369-8.766-.487-5.245.0375-11.614 1.1239-13.637.4496-.824.7868-1.835.7868-2.285 0-1.011 1.7982-4.271 2.4726-4.533.2622-.112.5994-.787.7492-1.536.1499-.787.562-1.761.9741-2.173.487-.524.7118-1.386.7493-2.435 0-.899.1123-1.836.2997-2.023.8242-1.124 2.9596-7.455 3.1844-9.478.2247-1.911.4495-2.473 1.2363-3.11.8242-.637 1.0115-1.124 1.0864-2.66.0375-1.086.2997-2.135.6369-2.51.2997-.337.8242-1.348 1.1239-2.173.2997-.8613 1.1614-2.4348 1.9106-3.5212 1.2363-1.7983 1.3487-2.1729 1.1239-3.634-.3371-2.3602.8242-7.4927 1.7608-7.7924.3746-.1124.6369-.4121.5994-.5994-.0749-.2248.1873-.7867.5994-1.2363.4496-.4496 1.1989-1.5735 1.7234-2.4351.5245-.8992 1.6109-2.5101 2.4726-3.5591 1.0864-1.3487 1.6109-2.4351 1.7982-3.6339.2248-1.3862.5245-1.9481 1.4985-2.6974.7119-.5245 1.8358-2.023 2.5101-3.3342 2.0605-3.8588 3.8962-6.4063 5.7319-7.9048.9366-.7493 1.7233-1.6484 1.7233-1.9107 0-.2997.4121-.8242.9366-1.1614.5245-.3371.9366-.8241.9366-1.0864 0-.7867 2.8847-6.2939 3.8588-7.4178.5244-.5619 1.1239-1.4985 1.3486-2.0605.4121-.9366 3.072-3.3342 4.8703-4.3457 2.6599-1.536 4.1584-2.585 4.1584-2.9222 0-.2248.9366-1.3861 2.0605-2.6224 1.1239-1.1989 2.0605-2.5475 2.0605-2.9222 0-.4121.2997-1.0115.7118-1.3861.3747-.3747.8992-1.049 1.1239-1.4986.2248-.487.8992-.974 1.4611-1.1239.562-.1124 1.7608-.5994 2.6974-1.0115s2.7723-.8616 4.121-1.0115c2.1729-.2248 3.9711-.8242 5.6195-1.8357.2997-.1873 1.6858-.8617 3.1095-1.536 1.3861-.6369 2.51-1.3112 2.51-1.4611 0-.1498.4496-.3746 1.049-.487 3.6714-.7493 8.5418-2.023 9.3288-2.4351.224-.1499 1.536-1.0865 2.922-2.0605 2.098-1.536 2.884-1.8732 5.057-2.2104 2.435-.3746 2.66-.3372 3.26.3746 1.273 1.4237 5.057 2.098 5.507.9741.15-.4496.562-.5619 1.348-.4496.637.1124 1.124 0 1.124-.2247.038-1.0116.825-1.3487 4.309-1.9107 3.147-.5245 4.196-.5619 6.556-.1873 1.536.2622 2.997.5994 3.184.7493.712.5994 4.87 1.8732 6.032 1.8732 1.086 0 2.959.5244 8.392 2.3227 6.893 2.2478 13.824 7.1555 15.622 11.0143.487 1.0864 1.498 2.3976 2.36 3.072 1.274 1.0489 1.649 1.1988 2.96.974.861-.1498 2.06-.7118 2.735-1.3112.674-.562 1.611-1.3487 2.098-1.7233.711-.562.899-1.049.936-2.7349 0-1.1239-.075-2.6224-.187-3.2968-.15-.7492 0-1.8731.337-2.8472.524-1.4236.562-1.7982.075-2.8847-.262-.7118-.487-1.4236-.412-1.5734.037-.1499-.15-.562-.487-.8617-.3-.3372-.562-.8242-.562-1.0864 0-.4871-2.211-2.4352-2.735-2.4352-.15 0-.824-.6368-1.536-1.4236-2.135-2.32271-9.965-5.95668-15.959-7.38029-1.536-.37464-3.709-1.08643-4.833-1.53601-1.087-.487-2.286-.89911-2.66-.89911-.337 0-1.236-.41211-1.948-.89914-1.686-1.123903-4.833-1.423586-9.816-.861635-3.371.337155-7.193.112366-11.651-.674347-.412-.0749206-1.236.0374451-1.873.224762zm-84.4428 56.12037c-.4121.7492-2.5475 1.7607-2.9221 1.3861s1.7982-2.0605 2.6224-2.0979c.5245 0 .5995.1498.2997.7118zm-4.1584 6.2564c0 1.2737-2.9222 5.7693-3.7838 5.7693-1.0115 0-1.049-.3746-.2248-2.2478 1.3487-2.997 4.0086-5.3573 4.0086-3.5215zm-19.968 38.213c-.1124.112-.4496.15-.7119.037-.2997-.112-.1873-.225.2248-.225.4121-.037.6369.075.4871.188z"/><path d="m28.6564 59.1783c-1.1239 1.3862-1.3487 2.2478-.562 2.023.487-.1873 2.1354-2.4351 2.1354-2.9596 0-.6743-.5994-.2997-1.5734.9366z"/><path d="m110.589 69.7056c-4.271.4121-7.156 1.0489-11.6512 2.4351-.6369.2248-1.3862.3746-1.6859.3746-.2622 0-1.3487.4121-2.3977.8992-3.559 1.6858-7.193 3.2218-7.605 3.2218-.2623 0-.7868.3372-1.2363.7867-.4121.4121-1.4986 1.1989-2.3977 1.7608-4.4207 2.6974-9.1036 6.0691-10.1526 7.268-.6744.7492-1.6859 2.2103-2.2478 3.2593-.5994 1.049-1.3112 1.9106-1.5735 1.9106-.2622 0-.5619.2997-.7118.6369-.1124.3746-.7493 1.2738-1.3862 2.0605-2.023 2.3602-3.559 4.6829-3.8212 5.6949-.2623 1.123 1.0864 3.446 2.1729 3.708.7492.225 3.8212-.337 4.7578-.861.4121-.188 1.3487-.375 2.098-.375 1.536 0 3.1469-1.349 4.8328-4.0459.8991-1.4236 1.3487-1.7608 2.2478-1.611.1498.0375.487-.0749.7492-.2622.2248-.1873 1.049-.562 1.7983-.7867 1.0864-.3747 1.7608-.9741 2.8098-2.5476 1.6109-2.4725 2.6224-3.1094 6.631-4.4581 1.6859-.5245 3.3717-1.1614 3.7838-1.4236.4121-.2623 1.2738-.5994 1.8732-.7493.6369-.1498 1.9481-.6743 2.9223-1.1988 1.011-.487 2.06-.8992 2.323-.8992.299 0 1.91-.5994 3.559-1.3486 1.685-.7118 3.858-1.4611 4.832-1.611.937-.1498 2.323-.5619 3.035-.9365 1.049-.562 2.323-.7119 6.219-.7868 2.697-.0375 5.057-.1873 5.282-.2997.375-.2248 7.793.7118 8.355 1.049.149.0749.899.1873 1.723.2248 1.573.0749 4.383.6743 7.642 1.6484 1.124.3371 2.66.7492 3.372.8991 2.36.5245 6.968 3.0345 9.478 5.17 1.462 1.1988 3.147 3.1094 4.047 4.5705.861 1.3487 2.622 4.0835 3.933 6.0316 1.274 1.9486 2.585 4.0456 2.922 4.6826.338.6.75 1.387.937 1.686.337.525 1.086 2.173 2.473 5.432.337.825 1.273 2.848 2.06 4.496s1.723 3.821 2.061 4.87c.374 1.012.936 2.548 1.311 3.372.899 2.023 4.158 15.06 4.57 18.357.225 1.611.225 4.833 0 8.429-.225 3.185-.412 6.631-.449 7.643 0 1.049-.337 2.622-.75 3.559-.936 2.398-3.296 10.04-3.596 11.764-.112.749-.525 1.798-.937 2.247-.374.487-.974 1.649-1.311 2.548-.712 1.761-2.885 4.908-4.271 6.144-.449.412-1.161 1.386-1.536 2.135-.936 1.836-5.544 6.294-8.317 8.092-1.198.75-2.959 1.986-3.933 2.735-1.649 1.237-3.484 2.323-5.695 3.297-1.573.674-3.409 1.836-4.271 2.585-1.835 1.686-5.244 3.072-9.216 3.709-2.172.337-4.27.599-4.683.599-1.835-.037-7.043-.524-8.841-.861-1.049-.225-2.585-.375-3.372-.375-3.034 0-12.438-2.96-15.21-4.795-.524-.3-1.236-.45-1.798-.3-.674.187-1.311 0-2.061-.524-1.2358-.862-2.3597-.975-2.9592-.225-.5619.674-1.6858.974-2.3227.599-.2622-.187-.6743-.075-1.0115.225-.2997.337-.7493.487-1.049.375-.974-.375-1.7608 4.458-.9366 6.069.487.936 1.1614 3.222 1.1614 3.858 0 .338.4121.974.9366 1.461s.9366.75.9366.562c0-.187.3371.038.7492.487.6744.712 1.2738.937 2.2478.9 1.9107-.113 6.7814.861 9.1784 1.798 2.847 1.124 3.26 1.161 7.942 1.124 4.983-.038 7.755.449 10.34 1.76.862.413 1.162.413 2.061 0 1.274-.674 3.784-1.011 4.72-.674.712.262 3.822-.3 5.582-1.011.6-.263 1.274-.45 1.536-.45.263 0 .787-.337 1.199-.787.787-.861 5.058-2.997 7.455-3.709 1.499-.449 3.859-1.873 5.245-3.109.412-.375 1.274-.974 1.873-1.274.637-.299 1.462-.861 1.874-1.236.936-.787 2.697-1.274 2.997-.749.112.224.936.075 2.023-.375 1.011-.375 1.91-.599 2.023-.524.112.112.562.037.974-.188.562-.299.824-.936 1.011-2.285.225-1.798.375-1.948 2.473-3.372 1.236-.824 2.323-1.498 2.435-1.498.262 0 1.948-2.023 1.986-2.361.037-.824 2.922-4.72 5.057-6.78 2.36-2.286 2.435-2.436 2.435-4.234 0-1.573.263-2.248 1.799-4.645 1.648-2.51 2.472-4.346 4.383-9.853.374-1.012.936-2.098 1.274-2.435 1.536-1.611 1.723-2.098 1.985-5.62.375-5.395.674-6.893 1.499-7.792.637-.675.711-1.087.487-2.248-.712-3.746-.974-5.919-1.162-10.415-.112-2.697-.374-5.395-.599-5.994-.412-1.124-.974-3.709-1.199-5.432-.449-3.447-1.274-6.669-1.798-7.306-.15-.187-.3-.824-.3-1.386 0-.599-.262-1.686-.599-2.472-1.761-4.084-3.147-7.68-3.147-8.167 0-.787-3.634-7.718-5.845-11.202-.674-1.049-1.386-2.585-1.648-3.4841-.225-.9741-.749-1.7983-1.349-2.2103-.524-.3372-1.423-1.5735-2.023-2.7349-.786-1.536-2.173-3.1469-4.945-5.7694-2.135-1.9855-4.308-3.8962-4.833-4.2708-.524-.3372-1.873-1.3112-2.959-2.098-2.061-1.5734-5.957-3.559-7.455-3.8212-.487-.1124-1.836-.5994-2.998-1.0865-1.91-.7867-3.746-1.2737-11.651-2.9971-3.147-.7118-7.38-1.2362-13.149-1.6858-2.548-.1873-5.582-.4496-6.706-.5245-1.124-.1124-4.271.0375-6.931.3372z"/><path d="m23.861 73.8641c-.8616.5994-1.4611 1.3861-1.7608 2.3976-.4121 1.4236-.4121 1.4986.2997 1.0865.4121-.2248.8617-.6744.9741-1.0116.1124-.3371.6369-1.0864 1.1614-1.6483 1.2737-1.3862.8991-1.9107-.6744-.8242z"/><path d="m19.0657 83.642c-.974 1.0864-.974 1.0864-.2622 1.3861.3746.1124.7493-.1873 1.1239-.8991.7118-1.3862.2248-1.6859-.8617-.487z"/><path d="m5.31648 116.722c.11239.188.29971.375.4121.375.07492 0 .14985-.187.14985-.375 0-.225-.18732-.374-.4121-.374-.18732 0-.26224.149-.14985.374z"/><path d="m103.658 120.206c-.712.263-2.06 1.049-2.959 1.686-2.0609 1.499-8.2049 8.167-10.0406 10.902-1.9481 2.922-4.608 8.205-4.608 9.216 0 .45-.2623 1.536-.562 2.398-1.0115 2.884-.8242 7.455.4496 10.714.5619 1.461 3.2218 7.193 4.6829 10.078 1.0115 1.948 4.2334 5.32 6.2564 6.519 3.4467 2.023 13.4117 2.735 17.8697 1.273 1.237-.412 3.297-.861 4.646-1.011 2.997-.3 5.807-1.761 6.668-3.409.375-.637 1.349-2.098 2.211-3.26.861-1.123 1.686-2.472 1.835-3.034.113-.525.45-1.124.75-1.386.299-.225.524-.712.562-1.049.037-1.274 1.348-3.447 3.446-5.62 1.162-1.274 2.136-2.622 2.136-2.997 0-.637-1.012-2.922-1.499-3.409-1.498-1.424-2.735-3.709-3.334-6.182-.487-1.91-1.087-3.259-1.686-3.896-.524-.562-.974-1.273-.974-1.573 0-.262-.524-1.424-1.161-2.51-.974-1.761-1.274-1.986-2.061-1.798-.862.224-1.723-.413-3.297-2.623-.449-.562-.936-.674-2.997-.599l-2.51.075-2.51-2.473c-1.386-1.349-3.222-3.184-4.083-4.009-1.386-1.386-1.649-1.536-2.323-1.124-1.124.712-1.761.6-2.435-.449-.712-1.049-.712-1.087-2.473-.45zm8.429 12.176c1.799.637 1.874.712 2.173 2.51.15 1.049.525 2.061.825 2.285 1.236.937 3.559 4.908 3.559 6.069 0 .375.262 1.274.636 1.949.338.749.637 2.322.675 3.896.037 1.461.337 3.371.674 4.271l.6 1.61-1.761 2.81c-3.709 5.882-4.159 6.294-9.329 8.355-2.322.936-5.732 1.348-8.092 1.011-1.461-.225-1.873-.524-3.334-2.398-2.2103-2.847-4.9452-8.054-5.582-10.489-.7119-2.848.2247-6.369 3.1469-11.914 1.7608-3.296 2.9596-4.533 7.1931-7.305 1.873-1.199 3.859-2.585 4.495-3.072.787-.674 1.274-.824 1.686-.562.3.187 1.387.637 2.435.974z"/></g></svg>